# Blender v3.2.1 OBJ File: ''
# www.blender.org
mtllib rotated_cube.mtl
o Cube
v 0.366025 1.549038 -0.683013
v 0.366025 -0.183013 -1.683013
v 1.366025 0.683013 0.816987
v 1.366025 -1.049038 -0.183013
v -1.366025 1.049038 0.183013
v -1.366025 -0.683013 -0.816987
v -0.366025 0.183013 1.683013
v -0.366025 -1.549038 0.683013
vt 0.875000 0.500000
vt 0.625000 0.750000
vt 0.625000 0.500000
vt 0.375000 1.000000
vt 0.375000 0.750000
vt 0.625000 0.000000
vt 0.375000 0.250000
vt 0.375000 0.000000
vt 0.375000 0.500000
vt 0.125000 0.750000
vt 0.125000 0.500000
vt 0.625000 0.250000
vt 0.875000 0.750000
vt 0.625000 1.000000
vn -0.0000 0.8660 0.5000
vn 0.5000 -0.4330 0.7500
vn -0.8660 -0.2500 0.4330
vn 0.0000 -0.8660 -0.5000
vn 0.8660 0.2500 -0.4330
vn -0.5000 0.4330 -0.7500
usemtl Material
s off
f 5/1/1 3/2/1 1/3/1
f 3/2/2 8/4/2 4/5/2
f 7/6/3 6/7/3 8/8/3
f 2/9/4 8/10/4 6/11/4
f 1/3/5 4/5/5 2/9/5
f 5/12/6 2/9/6 6/7/6
f 5/1/1 7/13/1 3/2/1
f 3/2/2 7/14/2 8/4/2
f 7/6/3 5/12/3 6/7/3
f 2/9/4 4/5/4 8/10/4
f 1/3/5 3/2/5 4/5/5
f 5/12/6 1/3/6 2/9/6
